# xmcd CD database file
# Copyright (C) 1993-1998 Ti Kan
# 
# Track frame offsets:
#     150
#     14217
#     29130
#     45045
#     59422
#     73752
#     86900
#     100817
#     119520
#     132842
# 
# Disc length: 1977 seconds
# 
# Revision: 1
# Processed by: cddbd v1.4b41PL1 Copyright (c) Steve Scherf et al.
# Submitted via: DiscPlay 4.0.4
# 
DISCID=9007b70a
DTITLE=Kenny Rogers and Dottie West - CLASSICS
DYEAR=1900
DGENRE=
TTITLE0=All I Ever Need Is You
TTITLE1=Til I Can Make It On My Own
TTITLE2=Just The Way You Are
TTITLE3=You Needed Me
TTITLE4=Another Somebody Done Somebody Wrong
TTITLE5=Together Again
TTITLE6=Midnight Flyer
TTITLE7=Youve Lost That Lovin' Feelin
TTITLE8=Let's Take The Long Way Around The World
TTITLE9=Let It Be Me
EXTD=
EXTT0=
EXTT1=
EXTT2=
EXTT3=
EXTT4=
EXTT5=
EXTT6=
EXTT7=
EXTT8=
EXTT9=
PLAYORDER=
